<svg xmlns="http://www.w3.org/2000/svg" viewBox="0 0 56 32" width="56" height="32">
  <!-- Shadow -->
  <ellipse cx="28" cy="30" rx="22" ry="2.5" fill="rgba(0,0,0,0.15)"/>
  <!-- Ducato body - long, boxy, flat roof -->
  <rect x="2" y="8" width="52" height="18" rx="3" fill="#1a4b8c"/>
  <!-- Cab area (front right) - angled windshield -->
  <path d="M42 8 L54 8 L54 26 L42 26 Z" fill="#143d73"/>
  <!-- Overcab profile (Ducato has flat high roof all the way) -->
  <rect x="2" y="4" width="40" height="4" rx="2" fill="#1a4b8c"/>
  <rect x="2" y="7" width="40" height="2" fill="#1a4b8c"/>
  <!-- Windshield - large, angled Ducato style -->
  <path d="M44 10 Q44 9 45 9 L52 9 Q53 9 53 10 L53 20 Q53 21 52 21 L44 21 Q43 21 43 20 Z" fill="#d4ecff" opacity="0.9"/>
  <!-- Side windows - living area -->
  <rect x="5" y="10" width="11" height="7" rx="1.5" fill="#d4ecff" opacity="0.85"/>
  <rect x="19" y="10" width="11" height="7" rx="1.5" fill="#d4ecff" opacity="0.85"/>
  <!-- Small cab side window -->
  <rect x="34" y="10" width="6" height="7" rx="1.5" fill="#d4ecff" opacity="0.8"/>
  <!-- Side stripe / trim -->
  <rect x="2" y="20" width="52" height="1.5" fill="#4a90d9"/>
  <!-- Wheel arches -->
  <path d="M8 26 Q8 22 12 22 Q16 22 16 26" fill="#4a5568"/>
  <path d="M40 26 Q40 22 44 22 Q48 22 48 26" fill="#4a5568"/>
  <!-- Wheels -->
  <circle cx="12" cy="26" r="3.5" fill="#2d3748"/>
  <circle cx="12" cy="26" r="1.8" fill="#a0aec0"/>
  <circle cx="12" cy="26" r="0.7" fill="#4a5568"/>
  <circle cx="44" cy="26" r="3.5" fill="#2d3748"/>
  <circle cx="44" cy="26" r="1.8" fill="#a0aec0"/>
  <circle cx="44" cy="26" r="0.7" fill="#4a5568"/>
  <!-- Headlight -->
  <rect x="52" y="16" width="2" height="5" rx="1" fill="#fefcbf"/>
  <!-- Tail light -->
  <rect x="2" y="16" width="1.5" height="5" rx="0.75" fill="#f56565"/>
  <!-- Side mirror -->
  <rect x="42" y="11" width="1" height="3" rx="0.5" fill="#4a5568"/>
  <rect x="41" y="10" width="2" height="2" rx="0.5" fill="#2d3748"/>
</svg>
